<svg width="193" height="33" viewBox="0 0 193 33" fill="none" xmlns="http://www.w3.org/2000/svg">
<path d="M0.446813 0.0751448H5.05481V17.9671L18.5908 0.0751448H22.9468V25.2751H18.3388V7.41915L4.80281 25.2751H0.446813V0.0751448ZM29.5084 6.05115H34.0084V13.8631H43.6924V6.05115H48.1924V25.2751H43.6924V17.6791H34.0084V25.2751H29.5084V6.05115ZM69.4512 9.86715H62.7192V25.2751H58.2192V9.86715H51.4512V6.05115H69.4512V9.86715ZM89.8717 15.7711C89.8717 16.0831 89.8477 16.5271 89.7997 17.1031H74.7157C74.9797 18.5191 75.6637 19.6471 76.7677 20.4871C77.8957 21.3031 79.2877 21.7111 80.9437 21.7111C83.0557 21.7111 84.7957 21.0151 86.1637 19.6231L88.5757 22.3951C87.7117 23.4271 86.6197 24.2071 85.2997 24.7351C83.9797 25.2631 82.4917 25.5271 80.8357 25.5271C78.7237 25.5271 76.8637 25.1071 75.2557 24.2671C73.6477 23.4271 72.3997 22.2631 71.5117 20.7751C70.6477 19.2631 70.2157 17.5591 70.2157 15.6631C70.2157 13.7911 70.6357 12.1111 71.4757 10.6231C72.3397 9.11115 73.5277 7.93515 75.0397 7.09515C76.5517 6.25515 78.2557 5.83515 80.1517 5.83515C82.0237 5.83515 83.6917 6.25515 85.1557 7.09515C86.6437 7.91115 87.7957 9.07515 88.6117 10.5871C89.4517 12.0751 89.8717 13.8031 89.8717 15.7711ZM80.1517 9.43515C78.7117 9.43515 77.4877 9.86715 76.4797 10.7311C75.4957 11.5711 74.8957 12.6991 74.6797 14.1151H85.5877C85.3957 12.7231 84.8077 11.5951 83.8237 10.7311C82.8397 9.86715 81.6157 9.43515 80.1517 9.43515ZM105.45 5.83515C107.322 5.83515 108.99 6.24315 110.454 7.05914C111.942 7.87515 113.106 9.02715 113.946 10.5151C114.786 12.0031 115.206 13.7191 115.206 15.6631C115.206 17.6071 114.786 19.3351 113.946 20.8471C113.106 22.3351 111.942 23.4871 110.454 24.3031C108.99 25.1191 107.322 25.5271 105.45 25.5271C102.858 25.5271 100.806 24.6631 99.2935 22.9351V32.2591H94.7935V6.05115H99.0775V8.57115C99.8215 7.65915 100.734 6.97515 101.814 6.51915C102.918 6.06315 104.13 5.83515 105.45 5.83515ZM104.946 21.6751C106.602 21.6751 107.958 21.1231 109.014 20.0191C110.094 18.9151 110.634 17.4631 110.634 15.6631C110.634 13.8631 110.094 12.4111 109.014 11.3071C107.958 10.2031 106.602 9.65115 104.946 9.65115C103.866 9.65115 102.894 9.90315 102.03 10.4071C101.166 10.8871 100.482 11.5831 99.9775 12.4951C99.4735 13.4071 99.2215 14.4631 99.2215 15.6631C99.2215 16.8631 99.4735 17.9191 99.9775 18.8311C100.482 19.7431 101.166 20.4511 102.03 20.9551C102.894 21.4351 103.866 21.6751 104.946 21.6751ZM129.332 12.3871C131.78 12.3871 133.652 12.9391 134.948 14.0431C136.268 15.1471 136.928 16.7071 136.928 18.7231C136.928 20.8351 136.208 22.4671 134.768 23.6191C133.328 24.7711 131.3 25.3351 128.684 25.3111L119.684 25.2751V6.05115H124.184V12.3511L129.332 12.3871ZM128.288 21.9991C129.608 22.0231 130.616 21.7471 131.312 21.1711C132.008 20.5951 132.356 19.7551 132.356 18.6511C132.356 17.5711 132.02 16.7791 131.348 16.2751C130.676 15.7711 129.656 15.5071 128.288 15.4831L124.184 15.4471V21.9631L128.288 21.9991ZM158.883 15.7711C158.883 16.0831 158.859 16.5271 158.811 17.1031H143.727C143.991 18.5191 144.675 19.6471 145.779 20.4871C146.907 21.3031 148.299 21.7111 149.955 21.7111C152.067 21.7111 153.807 21.0151 155.175 19.6231L157.587 22.3951C156.723 23.4271 155.631 24.2071 154.311 24.7351C152.991 25.2631 151.503 25.5271 149.847 25.5271C147.735 25.5271 145.875 25.1071 144.267 24.2671C142.659 23.4271 141.411 22.2631 140.523 20.7751C139.659 19.2631 139.227 17.5591 139.227 15.6631C139.227 13.7911 139.647 12.1111 140.487 10.6231C141.351 9.11115 142.539 7.93515 144.051 7.09515C145.563 6.25515 147.267 5.83515 149.163 5.83515C151.035 5.83515 152.703 6.25515 154.167 7.09515C155.655 7.91115 156.807 9.07515 157.623 10.5871C158.463 12.0751 158.883 13.8031 158.883 15.7711ZM149.163 9.43515C147.723 9.43515 146.499 9.86715 145.491 10.7311C144.507 11.5711 143.907 12.6991 143.691 14.1151H154.599C154.407 12.7231 153.819 11.5951 152.835 10.7311C151.851 9.86715 150.627 9.43515 149.163 9.43515ZM174.461 5.83515C176.333 5.83515 178.001 6.24315 179.465 7.05914C180.953 7.87515 182.117 9.02715 182.957 10.5151C183.797 12.0031 184.217 13.7191 184.217 15.6631C184.217 17.6071 183.797 19.3351 182.957 20.8471C182.117 22.3351 180.953 23.4871 179.465 24.3031C178.001 25.1191 176.333 25.5271 174.461 25.5271C171.869 25.5271 169.817 24.6631 168.305 22.9351V32.2591H163.805V6.05115H168.089V8.57115C168.833 7.65915 169.745 6.97515 170.825 6.51915C171.929 6.06315 173.141 5.83515 174.461 5.83515ZM173.957 21.6751C175.613 21.6751 176.969 21.1231 178.025 20.0191C179.105 18.9151 179.645 17.4631 179.645 15.6631C179.645 13.8631 179.105 12.4111 178.025 11.3071C176.969 10.2031 175.613 9.65115 173.957 9.65115C172.877 9.65115 171.905 9.90315 171.041 10.4071C170.177 10.8871 169.493 11.5831 168.989 12.4951C168.485 13.4071 168.233 14.4631 168.233 15.6631C168.233 16.8631 168.485 17.9191 168.989 18.8311C169.493 19.7431 170.177 20.4511 171.041 20.9551C171.905 21.4351 172.877 21.6751 173.957 21.6751ZM189.712 25.5271C188.896 25.5271 188.2 25.2511 187.624 24.6991C187.048 24.1231 186.76 23.4031 186.76 22.5391C186.76 21.6511 187.036 20.9311 187.588 20.3791C188.164 19.8271 188.872 19.5511 189.712 19.5511C190.552 19.5511 191.248 19.8271 191.8 20.3791C192.376 20.9311 192.664 21.6511 192.664 22.5391C192.664 23.4031 192.376 24.1231 191.8 24.6991C191.224 25.2511 190.528 25.5271 189.712 25.5271Z" fill="black"/>
</svg>
